<svg width="96" height="96" xmlns="http://www.w3.org/2000/svg" xmlns:xlink="http://www.w3.org/1999/xlink" overflow="hidden"><defs><clipPath id="clip0"><rect x="0" y="0" width="96" height="96"/></clipPath></defs><g clip-path="url(#clip0)"><path d="M37 53.092 61 53.092C62.6569 53.092 64 54.4351 64 56.092 64 57.7489 62.6569 59.092 61 59.092L43 59.092C42.4477 59.092 42 59.5397 42 60.092 42 60.6443 42.4477 61.092 43 61.092L61 61.092C63.7614 61.092 66 58.8534 66 56.092 66 53.3306 63.7614 51.092 61 51.092L37 51.092C35.1964 51.107 33.4275 51.5894 31.866 52.492L3.563 66.1C3.05502 66.3167 2.81892 66.9042 3.03565 67.4122 3.25239 67.9202 3.83989 68.1563 4.34787 67.9396 4.37583 67.9276 4.40324 67.9144 4.43 67.9L32.793 54.26C34.0681 53.5073 35.5193 53.1044 37 53.092Z"/><path d="M88 42.99C87.0799 42.9706 86.1749 43.2255 85.4 43.722L68.3 53.522C67.8201 53.7981 67.6549 54.4111 67.931 54.891 68.2071 55.3709 68.8201 55.5361 69.3 55.26L86.458 45.422C86.9165 45.1254 87.4541 44.9748 88 44.99 89.6569 44.99 91 46.3331 91 47.99 90.9603 48.8769 90.5824 49.715 89.944 50.332L62.518 70.383C61.9942 70.7789 61.3566 70.9953 60.7 71L42 71C31.772 71 23.458 74.127 17.291 80.3 16.8659 80.6525 16.807 81.283 17.1596 81.7081 17.5121 82.1332 18.1425 82.1921 18.5677 81.8395 18.6158 81.7996 18.6601 81.7552 18.7 81.707 24.481 75.928 32.319 73 42 73L60.7 73C61.7771 72.9937 62.824 72.6433 63.688 72L91.189 51.9 91.307 51.8C92.3559 50.8063 92.9652 49.4354 93 47.991 92.9972 45.2306 90.7604 42.9933 88 42.99Z"/><path d="M44.277 44.215C44.893 44.215 45.459 44.205 45.996 44.198L46.078 44.298C47.1626 45.4045 47.8401 46.8459 48 48.387 48.0094 48.4245 48.0215 48.4612 48.036 48.497 48.0496 48.5516 48.0673 48.6051 48.089 48.657 48.1189 48.7204 48.1554 48.7804 48.198 48.836 48.2276 48.8786 48.2611 48.9185 48.298 48.955 48.3505 49.0053 48.4089 49.049 48.472 49.085 48.5122 49.1138 48.5547 49.1392 48.599 49.161 48.6755 49.191 48.7555 49.2115 48.837 49.222 48.8725 49.2329 48.9086 49.2419 48.945 49.249L48.995 49.249C49.0401 49.249 49.0852 49.2459 49.13 49.24 49.1678 49.2293 49.2048 49.2162 49.241 49.201 49.3101 49.1857 49.3772 49.1625 49.441 49.132 49.4933 49.1032 49.5428 49.0698 49.589 49.032 49.6911 48.9594 49.7764 48.8656 49.839 48.757 49.8734 48.7017 49.9022 48.643 49.925 48.582 49.9457 48.5233 49.9605 48.4627 49.969 48.401 49.9805 48.3653 49.9895 48.3289 49.996 48.292 50.0612 44.4904 51.9719 40.9581 55.118 38.823 56.304 38.88 57.759 38.966 59.357 38.966 63.812 38.966 69.37 38.291 73.257 34.394 79.857 27.594 78.257 15.194 78.257 15.194 77.1503 15.0725 76.0374 15.0154 74.924 15.023 70.777 15.023 63.702 15.749 59.257 20.194 54.657 24.911 54.04 32.635 54.027 37.143 51.4972 38.89 49.6065 41.4148 48.642 44.334 48.3261 43.872 47.9839 43.4286 47.617 43.006 47.502 42.868 47.385 42.727 47.269 42.584 47.515 38.891 47.884 32.884 43.856 28.294 40.646 24.634 35.303 23.95 31.756 23.95 30.5516 23.9424 29.3483 24.024 28.156 24.194 28.156 24.194 26.799 34.709 32.256 39.894 36.384 43.829 40.868 44.215 44.277 44.215ZM60.664 21.615C64.653 17.626 71.306 17.03 74.917 17.03 75.467 17.03 75.963 17.044 76.387 17.063 76.542 20.437 76.358 28.327 71.834 32.988 69.12 35.707 65.152 36.973 59.347 36.973 58.72 36.973 58.12 36.959 57.547 36.939 61.109 32.783 64.016 30.139 66.608 28.704 67.0912 28.4364 67.2661 27.8277 66.9985 27.3445 66.7309 26.8612 66.1223 26.6864 65.639 26.954 62.849 28.499 59.781 31.269 56.077 35.581 56.318 29.208 57.849 24.5 60.664 21.614ZM30.023 26.015C30.513 25.981 31.099 25.957 31.749 25.957 34.506 25.957 39.549 26.432 42.349 29.62 45.349 33.042 45.523 37.465 45.361 40.898 43.3929 37.6965 40.8024 34.9224 37.743 32.74 37.2934 32.4191 36.6689 32.5234 36.348 32.973 36.0271 33.4226 36.1314 34.0471 36.581 34.368 39.504 36.4622 41.9684 39.1314 43.823 42.212 40.483 42.17 36.96 41.612 33.63 38.451 30.125 35.122 29.911 28.908 30.023 26.014Z"/></g></svg>