<svg width="96" height="96" xmlns="http://www.w3.org/2000/svg" xmlns:xlink="http://www.w3.org/1999/xlink" overflow="hidden"><defs><clipPath id="clip0"><rect x="0" y="0" width="96" height="96"/></clipPath></defs><g clip-path="url(#clip0)"><path d="M36.535 68.142C36.5344 70.6499 38.5671 72.6834 41.075 72.684 43.5829 72.6845 45.6164 70.6519 45.617 68.144 45.6176 65.6361 43.5849 63.6026 41.077 63.602 41.0763 63.602 41.0757 63.602 41.075 63.602 38.5679 63.6026 36.5356 65.6348 36.535 68.142ZM43.616 68.142C43.6166 69.5454 42.4794 70.6834 41.076 70.684 39.6726 70.6845 38.5346 69.5474 38.534 68.144 38.5334 66.7406 39.6706 65.6025 41.074 65.602 41.0747 65.602 41.0753 65.602 41.076 65.602 42.4779 65.6042 43.6138 66.7401 43.616 68.142Z"/><path d="M49.107 76.653C47.8021 75.6473 46.3091 74.9128 44.716 74.493 43.5135 74.1238 42.2629 73.9351 41.005 73.933 39.7488 73.9518 38.5008 74.1402 37.295 74.493 35.7195 74.959 34.2347 75.6894 32.904 76.653 32.3487 77.0916 32.0186 77.7555 32.004 78.463L32.004 83 50.004 83 50.004 78.46C49.9892 77.7541 49.6603 77.0916 49.107 76.653ZM48.007 81 34 81 34 78.5C34.0017 78.3981 34.0455 78.3015 34.121 78.233 35.2541 77.4205 36.5152 76.8033 37.852 76.407 38.8803 76.107 39.944 75.9459 41.015 75.928 42.0693 75.931 43.1173 76.0901 44.125 76.4L44.202 76.422C45.5302 76.7692 46.7751 77.3796 47.863 78.217 47.94 78.2754 47.9904 78.3622 48.003 78.458Z"/><path d="M56.4 68.142C56.3994 70.6499 58.4321 72.6834 60.94 72.684 63.4479 72.6845 65.4815 70.6519 65.482 68.144 65.4826 65.6361 63.4499 63.6026 60.942 63.602 60.9417 63.602 60.9413 63.602 60.941 63.602 58.4337 63.6026 56.4011 65.6347 56.4 68.142ZM63.482 68.142C63.4826 69.5454 62.3454 70.6834 60.942 70.684 59.5386 70.6845 58.4006 69.5474 58.4 68.144 58.3994 66.7406 59.5366 65.6025 60.94 65.602 60.9403 65.602 60.9407 65.602 60.941 65.602 62.3421 65.6053 63.4768 66.7409 63.479 68.142Z"/><path d="M69.109 76.653C67.8043 75.6475 66.3117 74.9131 64.719 74.493 63.5165 74.1239 62.2659 73.9352 61.008 73.933 59.7518 73.9518 58.5038 74.1402 57.298 74.493 55.7224 74.9588 54.2376 75.6892 52.907 76.653 52.3517 77.0916 52.0216 77.7555 52.007 78.463L52.007 83 70.007 83 70.007 78.46C69.992 77.7539 69.6627 77.0914 69.109 76.653ZM68.009 81 54.009 81 54.009 78.5C54.0111 78.398 54.0553 78.3014 54.131 78.233 55.2636 77.4203 56.5244 76.8031 57.861 76.407 58.8893 76.1071 59.953 75.946 61.024 75.928 62.0786 75.931 63.127 76.0901 64.135 76.4L64.212 76.422C65.54 76.769 66.7846 77.3794 67.872 78.217 67.949 78.2754 67.9994 78.3622 68.012 78.458Z"/><path d="M76.4 68.142C76.3995 70.6499 78.4321 72.6834 80.94 72.684 83.4479 72.6845 85.4815 70.6519 85.482 68.144 85.4826 65.6361 83.4499 63.6026 80.942 63.602 80.9417 63.602 80.9413 63.602 80.941 63.602 78.4337 63.6026 76.4011 65.6347 76.4 68.142ZM83.481 68.142C83.4816 69.5454 82.3444 70.6834 80.941 70.684 79.5376 70.6845 78.3996 69.5474 78.399 68.144 78.3985 66.7406 79.5356 65.6025 80.939 65.602 80.9397 65.602 80.9403 65.602 80.941 65.602 82.3431 65.6037 83.4793 66.7399 83.481 68.142Z"/><path d="M89.112 76.653C87.8071 75.6473 86.3141 74.9128 84.721 74.493 83.5188 74.1239 82.2686 73.9352 81.011 73.933 79.7544 73.9518 78.5062 74.1401 77.3 74.493 75.7247 74.9588 74.2402 75.6892 72.91 76.653 72.3541 77.0911 72.0238 77.7553 72.01 78.463L72.01 83 90.01 83 90.01 78.46C89.995 77.7539 89.6657 77.0914 89.112 76.653ZM88.012 81 74.012 81 74.012 78.5C74.0137 78.3981 74.0575 78.3015 74.133 78.233 75.2661 77.4205 76.5272 76.8033 77.864 76.407 78.8923 76.107 79.956 75.9459 81.027 75.928 82.0813 75.931 83.1293 76.0901 84.137 76.4L84.214 76.422C85.5422 76.7692 86.7871 77.3796 87.875 78.217 87.952 78.2754 88.0024 78.3622 88.015 78.458Z"/><path d="M24 13C24 11.8954 24.8954 11 26 11L77 11C78.1046 11 79 11.8954 79 13L79 47C79 48.1046 78.1046 49 77 49L43.163 49 41.952 51 77 51C79.2091 51 81 49.2091 81 47L81 13C81 10.7909 79.2091 9 77 9L26 9C23.7909 9 22 10.7909 22 13L22 17.033C22.6785 17.0791 23.3495 17.2026 24 17.401Z"/><path d="M33.9 47.131C34.2846 47.1773 34.6614 46.9973 34.867 46.669L39.159 39.823C39.628 39.0806 40.61 38.8589 41.3524 39.3279 41.3777 39.3439 41.4026 39.3606 41.427 39.378 42.1179 39.9363 42.2625 40.9323 41.759 41.664L36.52 50.317C35.9865 51.1965 34.859 51.5064 33.951 51.023 33.4633 50.7634 32.8576 50.9483 32.598 51.436 32.3384 51.9237 32.5233 52.5294 33.011 52.789 34.8561 53.7708 37.1468 53.1405 38.23 51.353L43.459 42.717C44.2783 41.4513 44.2526 39.8163 43.394 38.577L56.076 25.658C56.457 25.2581 56.4417 24.6252 56.0418 24.2442 55.65 23.8709 55.0323 23.877 54.648 24.258L41.807 37.338C41.1722 37.0847 40.478 37.0191 39.807 37.149 38.8395 37.3426 37.993 37.9231 37.464 38.756L34.3 43.805 32.453 38.217 32.388 38.063C30.9 34.647 27.355 34 21.344 34 15.333 34 11.792 34.647 10.292 38.073 10.292 38.073 10.252 38.157 10.232 38.214 10.2057 38.2823 10.1847 38.3525 10.169 38.424L6.678 57.509C6.26101 59.2832 7.36124 61.0595 9.13543 61.4765 9.21566 61.4954 9.29658 61.5112 9.378 61.524L9.678 61.571C9.73024 61.5794 9.78309 61.5834 9.836 61.583 10.388 61.5659 10.8216 61.1045 10.8045 60.5525 10.7899 60.0819 10.449 59.6852 9.986 59.6L9.686 59.552C9.32845 59.497 9.01054 59.2941 8.81 58.993 8.60156 58.6773 8.53789 58.2876 8.635 57.922L12.116 38.896 12.127 38.868C12.942 37.007 14.651 36 21.344 36 28.037 36 29.744 37.007 30.553 38.851L33.071 46.451C33.1922 46.8192 33.5152 47.0842 33.9 47.131Z"/><path d="M28 43.42C27.4477 43.42 27 43.8677 27 44.42L27 85 22.5 85 22.5 60.148 20.5 60.148 20.5 85 16 85 16 44.42C16 43.8677 15.5523 43.42 15 43.42 14.4477 43.42 14 43.8677 14 44.42L14 87 29 87 29 44.42C29 43.8677 28.5523 43.42 28 43.42Z"/><path d="M21.344 32C24.6577 32 27.344 29.3137 27.344 26 27.344 22.6863 24.6577 20 21.344 20 18.0303 20 15.344 22.6863 15.344 26 15.3479 29.3121 18.0319 31.9961 21.344 32ZM21.344 22C23.5531 22 25.344 23.7909 25.344 26 25.344 28.2091 23.5531 30 21.344 30 19.1349 30 17.344 28.2091 17.344 26 17.344 23.7909 19.1349 22 21.344 22Z"/></g></svg>